<svg width="1712" height="335" viewBox="0 0 1712 335" fill="none" xmlns="http://www.w3.org/2000/svg">
<path d="M183.579 2H251.876C256.211 2 259.171 2.42379 261.358 3.90234C263.474 5.33236 265.251 8.03071 266.449 13.5791L266.452 13.5938L266.456 13.6084C272.662 40.4079 284.62 60.0248 301.463 70.9668C318.34 81.9311 339.768 83.9559 364.395 76.2861C374.638 73.4714 381.262 73.4972 386.198 76.0068C391.16 78.5294 394.928 83.8148 398.791 92.8838C403.407 103.744 409.125 113.999 415.835 123.454V123.455C419.496 128.665 422.86 133.379 425.449 137.93C428.033 142.471 429.755 146.699 430.219 150.885C431.121 159.017 427.335 167.823 413.111 179.086C379.452 205.226 384.759 258.759 419.946 283.647V283.648C428.081 289.468 431.409 294.465 431.987 299.388C432.577 304.403 430.404 309.945 425.978 317.089C420.527 324.904 415.472 333.042 410.834 341.466L410.795 341.536L410.763 341.608C404.071 356.452 397.863 368.671 388.656 375.489C379.7 382.123 367.488 383.894 348.006 376.597L347.998 376.594L347.092 376.268C328.08 369.599 310.08 374.752 295.853 387.038C281.466 399.461 270.891 419.18 266.658 441.533C266.273 442.986 266.415 444.622 266.458 445.603C266.484 446.191 266.488 446.601 266.451 446.911C266.436 447.039 266.416 447.112 266.405 447.146C260.81 453.805 254.899 457.415 248.802 459.244C242.646 461.09 236.178 461.16 229.437 460.541C226.067 460.232 222.663 459.754 219.208 459.253C215.769 458.754 212.27 458.229 208.786 457.842C201.819 457.068 194.731 456.819 187.802 458.44L187.789 458.443C182.818 459.64 178.395 460.153 174.81 458.572C171.494 457.11 168.361 453.588 166.482 445.443L166.305 444.641C160.097 415.118 146.615 393.723 128.144 382.537C109.617 371.318 86.4552 370.6 61.457 381.675C53.4249 385.233 48.1812 385.17 44.6973 383.265C41.2788 381.395 38.9092 377.409 37.4326 371.399L37.292 370.812C34.0542 356.506 27.6983 343.944 20.9365 331.885C14.3884 320.206 7.52137 309.091 2.43555 297.082C26.3061 278.433 39.244 256.226 40.5371 233.324C41.8527 210.024 31.0903 186.452 8.41992 165.679L8.38672 165.649L7.94141 165.253C5.77745 163.296 4.55462 161.709 3.91016 160.391C3.25317 159.047 3.16886 157.929 3.37988 156.835C3.60697 155.657 4.18958 154.423 5.05566 152.88C5.87497 151.42 6.98424 149.627 7.92773 147.671C13.0616 137.226 19.1913 127.718 24.8701 117.359C30.4838 107.12 35.4785 96.3321 37.9277 83.917C39.1868 77.7093 41.3514 73.955 44.4873 72.1543C47.6294 70.3501 52.3666 70.1508 59.6543 72.6016L59.6602 72.6035C88.6774 82.2708 110.687 83.2549 127.993 73.4023C145.235 63.5866 157.226 43.3319 167.081 12.0625C168.833 6.7071 171.154 4.38526 173.648 3.25098C176.324 2.0341 179.52 2 183.579 2ZM218.395 73.5107C136.469 73.8591 65.7792 146.884 65.7764 231.447C65.5657 309.791 138.071 381.102 218.21 381.155C255.062 384.506 292.458 365.108 320.531 336.099C348.636 307.058 367.756 268.026 367.703 231.563V231.549C366.967 147.98 297.594 73.5107 218.403 73.5107H218.395Z" stroke="#585858" stroke-width="4"/>
<path d="M220.47 91.6973C291.186 92.2619 351.437 157.262 351.437 232.139C351.436 262.968 335.302 297.791 310.229 323.971C285.165 350.142 251.489 367.354 216.645 363.553L216.546 363.542L216.446 363.541L214.71 363.514C141.3 361.911 81.2257 301.38 81.835 229.409V229.408C82.4499 151.915 143.71 91.7036 220.47 91.6973ZM229.535 112.413C159.733 108.461 103.975 158.951 101.226 226.68V226.689L101.225 226.699C99.3165 288.304 152.355 342.321 217.478 345.228V345.229C244.993 346.52 272.998 333.125 294.236 312.576C315.479 292.023 330.212 264.064 330.903 235.849V235.848C331.644 204.946 319.913 174.77 301.254 151.999C282.608 129.244 256.892 113.711 229.534 112.413H229.535Z" stroke="#585858" stroke-width="4"/>
<path d="M227.57 142.479C253.209 163.233 272.516 188.203 278.385 224.222L278.386 224.226C281.908 245.578 278.489 264.865 269.521 279.458C260.57 294.019 246.019 304.038 226.951 306.814H226.95C214.686 308.606 203.165 307.686 193.21 303.208C183.288 298.744 174.751 290.67 168.54 277.833C162.342 265.022 161.692 253.579 164.693 243.492C167.709 233.357 174.47 224.396 183.426 216.724L183.425 216.723C206.852 196.816 216.816 169.217 227.57 142.479Z" stroke="#585858" stroke-width="4"/>
<path d="M1626.56 127.829L1626.81 128.451L1709.93 332.033L1710.49 333.411H1652.72L1652.48 332.76L1637.93 293.568H1561.4L1546.79 332.761L1546.54 333.411H1489.84L1490.4 332.034L1491 330.563L1491.26 329.941H1492.08V327.911L1492.16 327.729L1573.52 128.451L1573.77 127.829H1626.56ZM1494.9 329.941H1544.24L1558.85 290.75L1559.09 290.099H1640.24L1640.48 290.751L1655.03 329.941H1705.43L1624.33 131.299H1576L1494.9 329.941ZM1600.68 183.535L1625.48 250.337L1625.98 251.685H1573.41L1573.91 250.336L1598.81 183.534L1599.75 181.015L1600.68 183.535ZM1578.3 248.215H1621.1L1599.74 190.68L1578.3 248.215Z" fill="#585858" stroke="#585858" stroke-width="2"/>
<path d="M1406.39 127.829V284.904H1495.44V328.615L1495.37 328.797L1494.9 329.941H1495.44V333.411H1351.21V127.829H1406.39ZM1354.56 329.941H1492.08V288.374H1403.03V131.299H1354.56V329.941Z" fill="#585858" stroke="#585858" stroke-width="2"/>
<path d="M1322.13 127.829V175.477H1228.32V206.08H1311.03V252.008H1228.32V285.764H1325.83V333.411H1173.67V127.829H1322.13ZM1177.03 329.941H1322.47V289.233H1224.97V248.538H1307.68V209.55H1224.97V172.007H1318.77V131.299H1177.03V329.941Z" fill="#585858" stroke="#585858" stroke-width="2"/>
<path d="M966.747 127.829L967.033 128.341L1031.19 243.133L1094.02 128.349L1094.31 127.829H1139.5L1139.51 128.826L1140.04 332.409L1140.05 333.411H1088.57L1088.56 332.416L1088.13 231.376L1043.41 312.828L1043.13 313.347H1017.96L1017.68 312.84L972.772 233.635V333.411H921.557V127.829H966.747ZM924.912 329.941H969.418V220.855L971.287 224.154L1019.89 309.877H1041.17L1089.57 221.726L1091.43 218.338L1091.45 222.203L1091.91 329.941H1136.68L1136.16 131.299H1096.26L1032.09 248.537L1031.22 250.123L1030.34 248.545L964.81 131.299H924.912V329.941Z" fill="#585858" stroke="#585858" stroke-width="2"/>
<path d="M794.592 124.11C809.111 124.269 822.506 126.895 834.75 132.018H834.749C847.539 137.104 858.645 144.546 868.039 154.344L868.193 154.504C868.537 154.857 868.878 155.213 869.216 155.57L869.662 156.036H869.654C878.261 165.253 885.028 175.943 889.949 188.091C895.194 201.038 897.8 215.226 897.8 230.62C897.8 246.005 895.196 260.274 889.963 273.397L889.961 273.405L889.956 273.42L889.949 273.435C884.721 286.341 877.41 297.604 868.021 307.2C858.634 316.795 847.542 324.225 834.773 329.497L834.77 329.5L834.746 329.511L834.722 329.521C822.091 334.61 808.236 337.138 793.184 337.138C778.325 337.138 764.41 334.519 751.459 329.265L751.444 329.262L751.361 329.228C738.577 323.954 727.475 316.517 718.079 306.913C708.691 297.317 701.38 286.056 696.152 273.149L696.136 273.109L696.131 273.094C690.904 259.979 688.302 245.812 688.302 230.62L688.31 229.181C688.467 214.34 691.072 200.633 696.152 188.091C701.38 175.185 708.691 163.923 718.079 154.327C727.472 144.535 738.575 137.096 751.361 132.013C764.17 126.729 778.12 124.103 793.184 124.103L794.592 124.11ZM793.181 127.572C778.503 127.573 764.981 130.133 752.606 135.237L752.594 135.242C740.218 140.158 729.505 147.338 720.445 156.787L720.438 156.795C711.373 166.061 704.309 176.938 699.247 189.434L698.777 190.615L698.776 190.614C694.034 202.778 691.657 216.109 691.657 230.62L691.663 232.003C691.816 246.263 694.348 259.528 699.247 271.807C704.309 284.302 711.373 295.179 720.438 304.445C729.501 313.708 740.22 320.894 752.606 326.003H752.605C764.766 330.949 777.835 333.505 791.819 333.66L793.186 333.667C807.865 333.667 821.297 331.203 833.494 326.29C845.88 321.181 856.601 313.995 865.663 304.731C874.729 295.465 881.793 284.588 886.854 272.093C891.752 259.816 894.284 246.463 894.438 232.022L894.445 230.62L894.438 229.22C894.284 214.782 891.752 201.524 886.854 189.434C881.793 176.938 874.729 166.061 865.663 156.795L865.656 156.787C856.597 147.338 845.883 140.158 833.507 135.242L833.498 135.238L833.489 135.235C821.675 130.292 808.703 127.735 794.561 127.579L793.181 127.572ZM793.195 170.861L794.542 170.877H794.556C801.389 171.048 807.765 172.503 813.672 175.247C820.143 177.98 825.721 181.983 830.396 187.248C835.244 192.512 838.917 198.835 841.422 206.201L841.669 206.896C844.191 214.096 845.446 222.007 845.446 230.62V230.63L845.431 232.27V232.278C845.274 240.526 843.941 248.116 841.422 255.039C838.917 262.405 835.243 268.728 830.395 273.991C825.72 279.256 820.145 283.355 813.677 286.278L813.663 286.284L813.65 286.29L812.488 286.775L812.477 286.78C806.507 289.183 800.073 290.379 793.184 290.379H793.172L791.792 290.363H791.78C784.799 290.204 778.347 288.848 772.438 286.284L772.426 286.279L772.414 286.273C766.126 283.35 760.56 279.258 755.718 274.006L755.711 273.999L755.705 273.992C751.032 268.728 747.359 262.405 744.679 255.039C742.159 248.116 740.829 240.526 740.672 232.278L740.671 232.27L740.655 230.63V230.62C740.655 222.285 741.831 214.607 744.192 207.595L744.195 207.584L744.675 206.213L744.679 206.201C747.359 198.836 751.032 192.512 755.705 187.248L755.711 187.241L755.718 187.234C760.261 182.306 765.445 178.481 771.267 175.77L771.278 175.764L772.426 175.248C778.732 172.319 785.657 170.861 793.184 170.861H793.195ZM793.184 174.331C786.082 174.331 779.629 175.705 773.792 178.418L773.782 178.423V178.422L773.761 178.433L773.738 178.442C767.896 180.977 762.714 184.685 758.186 189.586L757.37 190.526L757.371 190.527C753.395 195.245 750.206 200.867 747.819 207.425C745.292 214.37 744.011 222.093 744.011 230.62C744.011 239.148 745.292 246.87 747.819 253.815C750.362 260.804 753.817 266.729 758.165 271.631C762.696 276.541 767.883 280.354 773.737 283.084L774.842 283.546H774.843C780.4 285.778 786.506 286.909 793.184 286.909C800.117 286.909 806.496 285.628 812.35 283.091L812.914 282.831C818.714 280.118 823.709 276.392 827.92 271.649L827.929 271.639L827.954 271.61C832.46 266.722 835.903 260.821 838.265 253.867L838.273 253.84L838.278 253.827L838.282 253.815C840.81 246.87 842.092 239.148 842.092 230.62C842.092 222.093 840.81 214.37 838.282 207.425L838.278 207.413L838.273 207.4L838.265 207.373L838.04 206.724C835.687 200.051 832.319 194.365 827.954 189.63L827.929 189.602L827.92 189.59C823.58 184.703 818.409 180.993 812.385 178.451V178.45L812.376 178.447L812.35 178.437L812.324 178.425L812.31 178.417C806.466 175.7 800.1 174.331 793.184 174.331Z" fill="#585858" stroke="#585858" stroke-width="2"/>
<path d="M588.855 127.829L590.459 127.838C606.949 128.02 621.299 131.026 633.442 136.942C646.144 143.045 655.936 151.85 662.719 163.372L663.362 164.46C669.9 175.767 673.125 189.062 673.125 204.249C673.125 219.74 669.686 233.218 662.709 244.571L662.448 244.995C662.312 245.219 662.176 245.442 662.037 245.663L662.018 245.696L662.017 245.695C656.048 255.223 647.889 262.836 637.601 268.546L677.896 331.875L678.874 333.411H619.03L618.736 332.942L618.334 332.301V332.3L585.134 279.524H558.181V333.411H503V127.829H588.855ZM506.355 329.941H554.825V276.055H586.955L587.249 276.521L620.853 329.941H672.648L633.324 268.141L632.734 267.213L633.714 266.713C645.052 260.924 653.762 252.928 659.871 242.719L659.877 242.709C666.458 232.001 669.771 219.194 669.771 204.249C669.77 189.112 666.457 176.113 659.873 165.213L659.866 165.202V165.201C653.455 154.301 644.186 145.929 632.022 140.086L632.018 140.083C620.403 134.423 606.548 131.486 590.422 131.308V131.307L588.851 131.299H506.355V329.941ZM585.948 172.866C597.364 172.866 606.112 175.575 612.004 181.167C617.884 186.748 620.771 194.488 620.771 204.249C620.771 213.827 617.88 221.555 612.017 227.319L612.011 227.326L612.004 227.332C606.296 232.75 597.908 235.461 587.013 235.625H587.006L585.957 235.634H554.825V172.866H585.948ZM558.181 232.164H585.948C596.904 232.164 604.686 229.56 609.723 224.787C614.799 219.787 617.417 213.034 617.417 204.249C617.417 195.244 614.783 188.515 609.735 183.725C604.699 178.944 596.913 176.337 585.948 176.337H558.181V232.164Z" fill="#585858" stroke="#585858" stroke-width="2"/>
</svg>
