<svg width="24" height="24" viewBox="0 0 24 24" fill="none" xmlns="http://www.w3.org/2000/svg">
<g clip-path="url(#clip0_258_922)">
<path d="M12 24C18.6274 24 24 18.6274 24 12C24 5.37258 18.6274 0 12 0C5.37258 0 0 5.37258 0 12C0 18.6274 5.37258 24 12 24Z" fill="#C13584"/>
<path d="M12 7.0811C13.602 7.0811 13.7919 7.0872 14.4245 7.11605C15.0095 7.14275 15.3272 7.2405 15.5386 7.32265C15.8187 7.4315 16.0185 7.5615 16.2285 7.77145C16.4385 7.98145 16.5685 8.1813 16.6773 8.46135C16.7595 8.6728 16.8572 8.9905 16.8839 9.57545C16.9128 10.2081 16.9189 10.3979 16.9189 11.9999C16.9189 13.602 16.9128 13.7918 16.8839 14.4245C16.8572 15.0095 16.7595 15.3271 16.6773 15.5386C16.5685 15.8186 16.4385 16.0185 16.2285 16.2285C16.0185 16.4384 15.8187 16.5684 15.5386 16.6773C15.3272 16.7595 15.0095 16.8572 14.4245 16.8839C13.792 16.9127 13.6022 16.9189 12 16.9189C10.3978 16.9189 10.2081 16.9127 9.5755 16.8839C8.9905 16.8572 8.6728 16.7595 8.46135 16.6773C8.1813 16.5684 7.98145 16.4384 7.7715 16.2285C7.56155 16.0185 7.4315 15.8186 7.32265 15.5386C7.2405 15.3271 7.14275 15.0095 7.11605 14.4245C7.0872 13.7918 7.0811 13.602 7.0811 11.9999C7.0811 10.3979 7.0872 10.2081 7.11605 9.57545C7.14275 8.9905 7.2405 8.6728 7.32265 8.46135C7.4315 8.1813 7.5615 7.98145 7.7715 7.7715C7.98145 7.5615 8.1813 7.4315 8.46135 7.32265C8.6728 7.2405 8.9905 7.14275 9.5755 7.11605C10.2081 7.0872 10.398 7.0811 12 7.0811ZM12 6C10.3705 6 10.1662 6.0069 9.5262 6.0361C8.8876 6.06525 8.4514 6.16665 8.06975 6.315C7.6752 6.4683 7.3406 6.67345 7.00705 7.00705C6.67345 7.3406 6.4683 7.6752 6.315 8.06975C6.16665 8.4514 6.06525 8.88755 6.0361 9.5262C6.0069 10.1662 6 10.3705 6 11.9999C6 13.6295 6.0069 13.8338 6.0361 14.4737C6.06525 15.1124 6.16665 15.5485 6.315 15.9302C6.4683 16.3247 6.67345 16.6593 7.00705 16.9929C7.3406 17.3265 7.6752 17.5316 8.06975 17.6849C8.4514 17.8333 8.8876 17.9347 9.5262 17.9638C10.1662 17.993 10.3705 17.9999 12 17.9999C13.6295 17.9999 13.8338 17.993 14.4738 17.9638C15.1124 17.9347 15.5486 17.8333 15.9303 17.6849C16.3248 17.5316 16.6594 17.3265 16.993 16.9929C17.3265 16.6593 17.5317 16.3247 17.685 15.9302C17.8333 15.5485 17.9347 15.1124 17.9639 14.4737C17.9931 13.8338 18 13.6295 18 11.9999C18 10.3705 17.9931 10.1662 17.9639 9.5262C17.9347 8.88755 17.8333 8.4514 17.685 8.06975C17.5317 7.6752 17.3265 7.3406 16.993 7.00705C16.6594 6.67345 16.3248 6.4683 15.9303 6.315C15.5486 6.16665 15.1124 6.06525 14.4738 6.0361C13.8338 6.0069 13.6295 6 12 6Z" fill="white"/>
<path d="M12.0029 8.92163C10.3013 8.92163 8.92188 10.301 8.92188 12.0027C8.92188 13.7043 10.3013 15.0837 12.0029 15.0837C13.7046 15.0837 15.084 13.7043 15.084 12.0027C15.084 10.301 13.7046 8.92163 12.0029 8.92163ZM12.0029 14.0027C10.8984 14.0027 10.0029 13.1072 10.0029 12.0027C10.0029 10.8981 10.8984 10.0027 12.0029 10.0027C13.1075 10.0027 14.0029 10.8981 14.0029 12.0027C14.0029 13.1072 13.1075 14.0027 12.0029 14.0027Z" fill="white"/>
<path d="M15.9254 8.79817C15.9254 9.19577 15.603 9.51818 15.2054 9.51818C14.8077 9.51818 14.4854 9.19577 14.4854 8.79817C14.4854 8.40052 14.8077 8.07812 15.2054 8.07812C15.603 8.07812 15.9254 8.40052 15.9254 8.79817Z" fill="white"/>
</g>
<defs>
<clipPath id="clip0_258_922">
<rect width="24" height="24" fill="white"/>
</clipPath>
</defs>
</svg>
