<svg width="435" height="335" viewBox="0 0 435 335" fill="none" xmlns="http://www.w3.org/2000/svg">
<path d="M183.579 2H251.876C256.211 2 259.171 2.42379 261.358 3.90234C263.474 5.33236 265.251 8.03071 266.449 13.5791L266.452 13.5938L266.456 13.6084C272.662 40.4079 284.62 60.0248 301.463 70.9668C318.34 81.931 339.768 83.9559 364.395 76.2861C374.638 73.4714 381.262 73.4972 386.198 76.0068C391.16 78.5294 394.928 83.8148 398.791 92.8838C403.407 103.744 409.125 113.999 415.835 123.454V123.455C419.496 128.665 422.86 133.379 425.449 137.93C428.033 142.471 429.755 146.699 430.219 150.885C431.121 159.017 427.335 167.823 413.111 179.086C379.452 205.226 384.759 258.759 419.946 283.647V283.648C428.081 289.468 431.409 294.465 431.987 299.388C432.577 304.403 430.404 309.945 425.978 317.089C420.527 324.904 415.472 333.042 410.834 341.466L410.795 341.536L410.763 341.608C404.071 356.452 397.863 368.671 388.656 375.489C379.7 382.123 367.488 383.894 348.006 376.597L347.998 376.594L347.092 376.268C328.08 369.599 310.08 374.752 295.853 387.038C281.466 399.461 270.891 419.18 266.658 441.533C266.273 442.986 266.415 444.622 266.458 445.603C266.484 446.191 266.488 446.601 266.451 446.911C266.436 447.039 266.416 447.112 266.405 447.146C260.81 453.805 254.899 457.415 248.802 459.244C242.646 461.09 236.178 461.16 229.437 460.541C226.067 460.232 222.663 459.754 219.208 459.253C215.769 458.754 212.27 458.229 208.786 457.842C201.819 457.068 194.731 456.819 187.802 458.44L187.789 458.443C182.818 459.64 178.395 460.153 174.81 458.572C171.494 457.11 168.361 453.588 166.482 445.443L166.305 444.641C160.097 415.118 146.615 393.723 128.144 382.537C109.617 371.318 86.4552 370.6 61.457 381.675C53.4249 385.233 48.1812 385.17 44.6973 383.265C41.2788 381.395 38.9092 377.409 37.4326 371.399L37.292 370.812C34.0542 356.506 27.6983 343.944 20.9365 331.885C14.3884 320.206 7.52137 309.091 2.43555 297.082C26.3061 278.433 39.244 256.226 40.5371 233.324C41.8527 210.024 31.0903 186.452 8.41992 165.679L8.38672 165.649L7.94141 165.253C5.77745 163.296 4.55462 161.709 3.91016 160.391C3.25317 159.047 3.16886 157.929 3.37988 156.835C3.60697 155.657 4.18958 154.423 5.05566 152.88C5.87497 151.42 6.98424 149.627 7.92773 147.671C13.0616 137.226 19.1913 127.718 24.8701 117.359C30.4838 107.12 35.4785 96.3321 37.9277 83.917C39.1868 77.7093 41.3514 73.955 44.4873 72.1543C47.6294 70.3501 52.3666 70.1508 59.6543 72.6016L59.6602 72.6035C88.6774 82.2708 110.687 83.2549 127.993 73.4023C145.235 63.5866 157.226 43.3319 167.081 12.0625C168.833 6.70709 171.154 4.38526 173.648 3.25098C176.324 2.0341 179.52 2 183.579 2ZM218.395 73.5107C136.469 73.8591 65.7792 146.884 65.7764 231.447C65.5657 309.791 138.071 381.102 218.21 381.155C255.062 384.506 292.458 365.108 320.531 336.099C348.636 307.058 367.756 268.026 367.703 231.563V231.549C366.967 147.98 297.594 73.5107 218.403 73.5107H218.395Z" stroke="#585858" stroke-width="4"/>
<path d="M220.47 91.6973C291.187 92.2619 351.437 157.262 351.437 232.139C351.437 262.968 335.302 297.791 310.23 323.971C285.166 350.142 251.489 367.354 216.645 363.553L216.546 363.542L216.447 363.541L214.71 363.514C141.3 361.911 81.2262 301.38 81.8354 229.409V229.408C82.4504 151.915 143.71 91.7036 220.47 91.6973ZM229.536 112.413C159.734 108.461 103.975 158.951 101.226 226.68V226.689L101.225 226.699C99.317 288.304 152.356 342.321 217.478 345.228V345.229C244.993 346.52 272.999 333.125 294.237 312.576C315.479 292.023 330.212 264.064 330.904 235.849V235.848C331.644 204.946 319.913 174.77 301.254 151.999C282.608 129.244 256.892 113.711 229.535 112.413H229.536Z" stroke="#585858" stroke-width="4"/>
<path d="M227.57 142.479C253.209 163.233 272.516 188.203 278.384 224.222L278.385 224.226C281.908 245.578 278.489 264.865 269.52 279.458C260.57 294.019 246.019 304.038 226.951 306.814H226.95C214.686 308.606 203.165 307.686 193.21 303.208C183.287 298.744 174.75 290.67 168.54 277.833C162.342 265.022 161.692 253.579 164.693 243.492C167.709 233.357 174.47 224.396 183.425 216.724L183.424 216.723C206.852 196.816 216.816 169.217 227.57 142.479Z" stroke="#585858" stroke-width="4"/>
</svg>
