<svg width="1210" height="211" viewBox="0 0 1210 211" fill="none" xmlns="http://www.w3.org/2000/svg">
<path d="M1124.56 4.72656L1124.81 5.34863L1207.93 208.931L1208.49 210.309H1150.72L1150.48 209.657L1135.93 170.466H1059.4L1044.79 209.658L1044.54 210.309H987.84L988.402 208.932L989.001 207.461L989.255 206.839H990.083V204.809L990.158 204.627L1071.52 5.34863L1071.77 4.72656H1124.56ZM992.898 206.839H1042.24L1056.85 167.647L1057.09 166.996H1138.24L1138.48 167.648L1153.03 206.839H1203.43L1122.33 8.19629H1074L992.898 206.839ZM1098.68 60.4326L1123.48 127.234L1123.98 128.582H1071.41L1071.91 127.233L1096.81 60.4316L1097.75 57.9121L1098.68 60.4326ZM1076.3 125.112H1119.1L1097.74 67.5771L1076.3 125.112Z" fill="#585858" stroke="#585858" stroke-width="2"/>
<path d="M904.389 4.72656V161.802H993.439V205.513L993.365 205.694L992.898 206.839H993.439V210.309H849.208V4.72656H904.389ZM852.564 206.839H990.083V165.271H901.034V8.19629H852.564V206.839Z" fill="#585858" stroke="#585858" stroke-width="2"/>
<path d="M820.129 4.72656V52.374H726.322V82.9775H809.03V128.905H726.322V162.661H823.828V210.309H671.671V4.72656H820.129ZM675.026 206.839H820.473V166.131H722.967V125.436H805.676V86.4473H722.967V48.9043H816.774V8.19629H675.026V206.839Z" fill="#585858" stroke="#585858" stroke-width="2"/>
<path d="M464.747 4.72656L465.033 5.23828L529.188 120.03L592.021 5.24609L592.306 4.72656H637.503L637.506 5.72363L638.043 209.307L638.046 210.309H586.568L586.563 209.313L586.129 108.273L541.41 189.726L541.126 190.244H515.963L515.676 189.737L470.772 110.532V210.309H419.557V4.72656H464.747ZM422.912 206.839H467.418V97.7529L469.287 101.052L517.886 186.774H539.172L587.569 98.623L589.43 95.2354L589.446 99.1006L589.908 206.839H634.681L634.157 8.19629H594.263L530.089 125.435L529.221 127.021L528.339 125.442L462.81 8.19629H422.912V206.839Z" fill="#585858" stroke="#585858" stroke-width="2"/>
<path d="M292.592 1.00781C307.111 1.16694 320.506 3.79218 332.75 8.91504H332.749C345.539 14.0016 356.645 21.4432 366.039 31.2412L366.193 31.4014C366.537 31.7545 366.878 32.1102 367.216 32.4678L367.662 32.9336H367.654C376.261 42.1502 383.028 52.8401 387.949 64.9883C393.194 77.9354 395.8 92.1231 395.8 107.518C395.8 122.906 393.195 137.177 387.96 150.303L387.961 150.304L387.955 150.318L387.949 150.332C382.721 163.239 375.41 174.501 366.021 184.098C356.634 193.693 345.541 201.123 332.771 206.396L332.77 206.397L332.746 206.408L332.722 206.418C320.485 211.348 307.1 213.874 292.591 214.027L291.184 214.035C276.325 214.035 262.41 211.417 249.459 206.162L249.444 206.159L249.361 206.125C236.577 200.852 225.475 193.414 216.079 183.811C206.691 174.214 199.38 162.953 194.152 150.047L194.136 150.007L194.131 149.991C188.904 136.876 186.302 122.71 186.302 107.518C186.302 92.1231 188.908 77.9354 194.152 64.9883C199.38 52.0821 206.691 40.8209 216.079 31.2246C225.472 21.4326 236.575 13.9939 249.361 8.91016C262.17 3.62655 276.12 1 291.184 1L292.592 1.00781ZM291.181 4.46973C276.503 4.47003 262.981 7.03008 250.606 12.1348L250.594 12.1396C238.218 17.0559 227.505 24.2359 218.445 33.6846L218.438 33.6924C209.373 42.9587 202.309 53.8356 197.247 66.3311L196.777 67.5127L196.776 67.5117C192.034 79.6751 189.657 93.0069 189.657 107.518L189.663 108.9C189.816 123.16 192.348 136.426 197.247 148.704C202.309 161.2 209.373 172.076 218.438 181.343C227.501 190.606 238.22 197.791 250.606 202.9H250.605C262.766 207.847 275.835 210.402 289.819 210.558L291.186 210.564C305.865 210.564 319.297 208.1 331.494 203.188C343.88 198.078 354.601 190.892 363.663 181.629C372.729 172.362 379.793 161.486 384.854 148.99C389.753 136.713 392.284 123.359 392.438 108.919L392.445 107.518L392.438 106.117C392.284 91.68 389.752 78.4213 384.854 66.3311C379.793 53.8354 372.729 42.9588 363.663 33.6924L363.656 33.6846C354.597 24.2357 343.883 17.0559 331.507 12.1396L331.498 12.1357L331.489 12.1328C319.675 7.18988 306.703 4.63204 292.561 4.47656L291.181 4.46973ZM291.195 47.7588L292.542 47.7744H292.556C299.389 47.9454 305.765 49.4009 311.672 52.1445C318.143 54.8776 323.721 58.8801 328.396 64.1455C333.244 69.4092 336.917 75.7325 339.422 83.0986L339.67 83.793C342.192 90.993 343.446 98.9045 343.446 107.518V107.527L343.431 109.167V109.176C343.274 117.423 341.941 125.013 339.422 131.937C336.917 139.303 333.243 145.625 328.395 150.889C323.72 156.154 318.145 160.252 311.677 163.176L311.663 163.182L311.65 163.188L310.488 163.673L310.477 163.678C304.797 165.964 298.696 167.155 292.184 167.266V167.288L291.172 167.276H290.184V167.265L289.792 167.261H289.78C282.799 167.101 276.347 165.746 270.438 163.182L270.426 163.177L270.414 163.171C264.126 160.248 258.56 156.155 253.718 150.903L253.711 150.896L253.705 150.89C249.032 145.625 245.359 139.302 242.679 131.937C240.159 125.013 238.829 117.423 238.672 109.176L238.671 109.167L238.655 107.527V107.518C238.655 99.1826 239.831 91.5046 242.192 84.4922L242.195 84.4814L242.675 83.1104L242.679 83.0986C245.359 75.7331 249.032 69.4097 253.705 64.1455L253.711 64.1387L253.718 64.1318C258.261 59.2036 263.445 55.3782 269.267 52.667L269.278 52.6611L270.426 52.1455C276.732 49.2161 283.657 47.7588 291.184 47.7588H291.195ZM291.184 51.2285C284.082 51.2285 277.629 52.6021 271.792 55.3154L271.789 55.3164L271.782 55.3203L271.76 55.3311L271.738 55.3398C265.896 57.8749 260.714 61.5821 256.186 66.4834L255.37 67.4238L255.371 67.4248C251.395 72.1424 248.206 77.7646 245.819 84.3223C243.292 91.2679 242.011 98.99 242.011 107.518C242.011 116.045 243.292 123.767 245.819 130.713C248.362 137.701 251.817 143.627 256.165 148.528C260.696 153.438 265.883 157.251 271.737 159.981L272.842 160.443H272.843C278.4 162.676 284.506 163.807 291.184 163.807C298.117 163.807 304.496 162.525 310.35 159.988L310.914 159.729C316.713 157.016 321.707 153.29 325.917 148.55L325.929 148.536L325.954 148.508C330.46 143.62 333.903 137.719 336.265 130.765L336.273 130.737L336.278 130.725L336.282 130.713C338.81 123.767 340.092 116.045 340.092 107.518C340.092 98.99 338.81 91.2679 336.282 84.3223L336.278 84.3105L336.273 84.2979L336.265 84.2705L336.04 83.6211C333.687 76.9482 330.319 71.2626 325.954 66.5273L325.929 66.499L325.916 66.4834C321.577 61.5983 316.407 57.8893 310.385 55.3486V55.3477L310.376 55.3447L310.35 55.334L310.324 55.3223L310.303 55.3125V55.3115C304.461 52.5971 298.097 51.2286 291.184 51.2285Z" fill="#585858" stroke="#585858" stroke-width="2"/>
<path d="M87.8555 4.72656V4.73242C104.599 4.84723 119.151 7.85128 131.442 13.8398C144.144 19.9426 153.936 28.7472 160.719 40.2695L161.362 41.3574C167.9 52.6647 171.125 65.9599 171.125 81.1465C171.125 96.6378 167.686 110.116 160.709 121.469L160.353 122.05C160.264 122.194 160.176 122.337 160.087 122.48L160.02 122.592L160.018 122.59C154.049 132.119 145.89 139.733 135.601 145.443L175.896 208.772L176.874 210.309H117.03L116.736 209.84L116.334 209.198V209.197L83.1338 156.422H56.1807V210.309H1V4.72656H87.8555ZM4.35547 206.839H52.8252V152.952H84.9551L85.249 153.419L118.853 206.839H170.648L131.324 145.038L130.734 144.11L131.714 143.61C143.052 137.822 151.762 129.826 157.871 119.616L157.877 119.606C164.458 108.898 167.771 96.0914 167.771 81.1465C167.77 66.0092 164.457 53.0109 157.873 42.1104L157.866 42.0996V42.0986C151.455 31.1984 142.186 22.8267 130.022 16.9834L130.018 16.9805C118.403 11.3204 104.548 8.38311 88.4219 8.20508V8.2041L86.8506 8.19629H4.35547V206.839ZM83.9482 49.7637C95.3638 49.7637 104.112 52.4723 110.004 58.0645C115.884 63.6454 118.771 71.3857 118.771 81.1465C118.771 90.7245 115.88 98.4529 110.017 104.217L110.011 104.224L110.004 104.229C104.296 109.647 95.9079 112.358 85.0127 112.522H84.9482V112.531H83.957L82.9482 112.539V112.531H52.8252V49.7637H83.9482ZM56.1807 109.062H83.9482L84.9668 109.054C95.3885 108.896 102.843 106.308 107.723 101.685C112.799 96.6848 115.417 89.9315 115.417 81.1465C115.417 72.1417 112.783 65.4128 107.735 60.6221C102.699 55.8417 94.9132 53.2344 83.9482 53.2344H56.1807V109.062Z" fill="#585858" stroke="#585858" stroke-width="2"/>
</svg>
